<svg xmlns="http://www.w3.org/2000/svg" width="61.792" height="59.112" viewBox="0 0 61.792 59.112">
  <g id="Group_1157" data-name="Group 1157" transform="translate(-8.788 -10.018)">
    <path id="Path_1267" data-name="Path 1267" d="M24.765,13.453h0a57.272,57.272,0,0,1,29.475-.022l.292.082C74.1,19.018,74.146,32.771,54.6,38.3h0a57.3,57.3,0,0,1-29.475.019l-.293-.081C5.265,32.736,5.223,18.984,24.765,13.453Z" transform="translate(0)" fill="none" stroke="#a6b9c8" stroke-miterlimit="10" stroke-width="2.69"/>
    <path id="Path_1268" data-name="Path 1268" d="M24.765,26.138h0a57.261,57.261,0,0,1,29.475-.022l.292.082C74.1,31.7,74.146,45.455,54.6,50.985h0a57.261,57.261,0,0,1-29.475.019l-.293-.082C5.265,45.42,5.223,31.668,24.765,26.138Z" transform="translate(0 1.012)" fill="none" stroke="#a6b9c8" stroke-miterlimit="10" stroke-width="2.69"/>
    <path id="Path_1269" data-name="Path 1269" d="M24.765,38.822h0A57.3,57.3,0,0,1,54.241,38.8l.292.082c19.571,5.5,19.613,19.256.071,24.787h0a57.249,57.249,0,0,1-29.475.021l-.293-.082C5.265,58.1,5.223,44.353,24.765,38.822Z" transform="translate(0 2.025)" fill="none" stroke="#a6b9c8" stroke-miterlimit="10" stroke-width="2.69"/>
  </g>
</svg>
