<?xml version="1.0" encoding="utf-8"?>
<!-- Generator: Adobe Illustrator 25.0.0, SVG Export Plug-In . SVG Version: 6.00 Build 0)  -->
<svg version="1.1" id="Group_926" xmlns="http://www.w3.org/2000/svg" xmlns:xlink="http://www.w3.org/1999/xlink" x="0px" y="0px"
	 viewBox="0 0 95.1 93.1" style="enable-background:new 0 0 95.1 93.1;" xml:space="preserve">
<style type="text/css">
	.st0{fill:none;}
	.st1{fill:#33058D;}
</style>
<path id="Path_453" class="st0" d="M80,61.7c2,0,4,0.4,5.9,1.2c9-21.7-1.3-46.5-23-55.5s-46.5,1.3-55.5,23s1.3,46.5,23,55.5
	c11.8,4.9,25.1,4.2,36.3-1.8c-4-7.4-1.3-16.6,6.1-20.6C74.9,62.3,77.4,61.7,80,61.7L80,61.7z M57.7,69.1c-0.1,1.8-1.5,3.3-3.3,3.5
	H38.8c-1.8-0.2-3.3-1.7-3.4-3.5V58H24c-1.8-0.2-3.2-1.8-3.3-3.6V38.8c0.1-1.7,1.5-3.1,3.3-3.1h11.4V24c0.1-1.8,1.6-3.3,3.4-3.3h15.7
	c1.8,0.1,3.2,1.6,3.2,3.3v11.6h11.5c1.7,0,3.1,1.4,3.1,3.1v15.6c0,1.7-1.5,3.6-3.2,3.6H57.7V69.1z"/>
<path id="Path_454" class="st0" d="M53.5,37.5V24.5H39.6v12.9c-0.1,1.1-1,2-2.1,2H24.6v14.3h12.9c1.1,0,2,0.8,2.1,1.9v13.1h13.9
	V55.7c0.2-1.1,1.1-1.9,2.2-1.9h12.4V39.5H55.7C54.6,39.4,53.6,38.6,53.5,37.5z"/>
<g>
	<g>
		<path class="st1" d="M84,7.1c0-3.1-2.5-5.6-5.6-5.6H16.8c-3.1,0-5.6,2.5-5.6,5.6v12.7c0,1.5,0.6,2.9,1.6,3.9c-1,1-1.6,2.4-1.6,3.9
			v12.7c0,1.5,0.6,2.9,1.6,3.9c-1,1-1.6,2.4-1.6,3.9V61c0,3.1,2.5,5.6,5.6,5.6h61.6c3.1,0,5.6-2.5,5.6-5.6V48.3
			c0-1.5-0.6-2.9-1.6-3.9c1-1,1.6-2.4,1.6-3.9V27.7c0-1.5-0.6-2.9-1.6-3.9c1-1,1.6-2.4,1.6-3.9L84,7.1L84,7.1z M14.5,7.1
			c0-1.3,1-2.3,2.3-2.3h61.6c1.3,0,2.3,1,2.3,2.3v12.7c0,1.3-1,2.3-2.3,2.3H16.8c-1.3,0-2.3-1-2.3-2.3L14.5,7.1L14.5,7.1z
			 M80.6,27.7v12.7c0,1.3-1,2.3-2.3,2.3H16.8c-1.3,0-2.3-1-2.3-2.3V27.7c0-1.3,1-2.3,2.3-2.3h61.6C79.6,25.5,80.6,26.5,80.6,27.7z
			 M80.6,61c0,1.3-1,2.3-2.3,2.3H16.8c-1.3,0-2.3-1-2.3-2.3V48.3c0-1.3,1-2.3,2.3-2.3h61.6c1.3,0,2.3,1,2.3,2.3L80.6,61L80.6,61z"/>
		<path class="st1" d="M46.8,15.2h20.8c0.9,0,1.7-0.8,1.7-1.7c0-0.9-0.8-1.7-1.7-1.7H46.8c-0.9,0-1.7,0.8-1.7,1.7
			C45.2,14.4,45.9,15.2,46.8,15.2z"/>
		<circle class="st1" cx="29.9" cy="13.5" r="2"/>
		<path class="st1" d="M46.8,35.7h20.8c0.9,0,1.7-0.8,1.7-1.7s-0.8-1.7-1.7-1.7H46.8c-0.9,0-1.7,0.8-1.7,1.7
			C45.2,35,45.9,35.7,46.8,35.7z"/>
		<path class="st1" d="M67.6,53H46.8c-0.9,0-1.7,0.8-1.7,1.7s0.8,1.7,1.7,1.7h20.8c0.9,0,1.7-0.8,1.7-1.7S68.5,53,67.6,53z"/>
		<circle class="st1" cx="29.9" cy="34.1" r="2"/>
		<circle class="st1" cx="29.9" cy="54.7" r="2"/>
		<path class="st1" d="M80.3,78.4c-3.1,0-5.6,2.1-6.4,4.9H54c-0.6-2.3-2.4-4.1-4.7-4.7v-5.2c0-0.9-0.8-1.7-1.7-1.7
			c-0.9,0-1.7,0.8-1.7,1.7v5.2c-2.3,0.6-4.1,2.4-4.7,4.7h-20c-0.7-2.8-3.3-4.9-6.4-4.9c-3.6,0-6.6,3-6.6,6.6c0,3.6,3,6.6,6.6,6.6
			c3.1,0,5.6-2.1,6.4-4.9h20c0.7,2.8,3.3,4.9,6.4,4.9s5.6-2.1,6.4-4.9h20c0.7,2.8,3.3,4.9,6.4,4.9c3.6,0,6.6-3,6.6-6.6
			C86.9,81.4,83.9,78.4,80.3,78.4z M14.8,88.3c-1.8,0-3.3-1.5-3.3-3.3c0-1.8,1.5-3.3,3.3-3.3s3.3,1.5,3.3,3.3
			C18.1,86.8,16.6,88.3,14.8,88.3z M47.6,88.3c-1.8,0-3.3-1.5-3.3-3.3c0-1.8,1.5-3.3,3.3-3.3c1.8,0,3.3,1.5,3.3,3.3
			C50.8,86.8,49.4,88.3,47.6,88.3z M80.3,88.3c-1.8,0-3.3-1.5-3.3-3.3c0-1.8,1.5-3.3,3.3-3.3s3.3,1.5,3.3,3.3
			C83.5,86.8,82.1,88.3,80.3,88.3z"/>
	</g>
</g>
</svg>
