<svg xmlns="http://www.w3.org/2000/svg" width="64.731" height="68.029" viewBox="0 0 64.731 68.029">
  <path id="Path_1252" data-name="Path 1252" d="M206.484-3413.364a3.275,3.275,0,0,0-3.093.123l-6.705,3.454v-6.935a2.8,2.8,0,0,0-1.371-2.585,3.224,3.224,0,0,0-3.082.177l-5.864,3.157v-6.57a2.823,2.823,0,0,0-1.375-2.588,3.25,3.25,0,0,0-3.085.156l-5.815,3.082v-6.588a2.8,2.8,0,0,0-1.376-2.584,3.231,3.231,0,0,0-3.078.175l-26.387,14.168a2.854,2.854,0,0,0-1.712,2.4,2.859,2.859,0,0,0,1.692,2.418l5.909,3.237-6.291,3.333a2.817,2.817,0,0,0-1.726,2.388,2.822,2.822,0,0,0,1.7,2.4l6.437,3.468-6.013,3.233a2.831,2.831,0,0,0-1.7,2.4,2.838,2.838,0,0,0,1.7,2.4l5.941,3.2-5.951,3.234a2.842,2.842,0,0,0-1.7,2.408,2.847,2.847,0,0,0,1.71,2.4l25.92,13.959a3.826,3.826,0,0,0,1.8.491,2.7,2.7,0,0,0,1.28-.313,2.8,2.8,0,0,0,1.374-2.587v-6.449l6.294,3.387a3.8,3.8,0,0,0,1.795.489,2.669,2.669,0,0,0,1.283-.312,2.808,2.808,0,0,0,1.37-2.589v-6.765l5.87,3.206a3.812,3.812,0,0,0,1.81.5,2.7,2.7,0,0,0,1.271-.306,2.791,2.791,0,0,0,1.372-2.584v-6.64l6.718,3.626a3.8,3.8,0,0,0,1.8.49,2.709,2.709,0,0,0,1.278-.311,2.8,2.8,0,0,0,1.375-2.588v-27.671A2.834,2.834,0,0,0,206.484-3413.364Zm-13.151-3.982a1.077,1.077,0,0,1,.881-.178c.122.068.269.321.269.8v8.067l-17.8,9.166a5.615,5.615,0,0,1-4.537-.057l-5.888-3.227ZM183-3423.18c.449-.239.761-.242.89-.171s.277.327.277.811v7.754l-20.091,10.815-8.523-4.669Zm-36.652,9.5c-.447-.245-.6-.492-.6-.63s.16-.384.611-.625l26.385-14.168c.446-.24.756-.245.881-.176s.273.321.273.8v7.756l-20.538,10.882Zm27.081,47.436c0,.483-.15.735-.278.8s-.431.065-.876-.179l-25.916-13.961c-.451-.24-.61-.486-.611-.621s.158-.381.607-.622l7.042-3.831,20.034,10.779v7.633Zm0-10.008-27.071-14.573c-.451-.239-.61-.482-.61-.613s.159-.382.61-.621l7.116-3.827,19.956,10.751v8.882Zm0-11.255-27.5-14.823c-.414-.221-.6-.466-.6-.6s.187-.384.608-.605l7.4-3.923,17.7,9.7a6.877,6.877,0,0,0,2.4.724.336.336,0,0,0-.008.061Zm10.471,16.594c-.127.07-.435.063-.883-.179l-7.389-3.978v-21.909a.349.349,0,0,0-.01-.079,6.721,6.721,0,0,0,2.132-.621l6.418-3.306v29.271C184.162-3371.236,184.017-3370.985,183.894-3370.917Zm10.321-5.956c-.121.065-.425.057-.867-.186l-6.979-3.808v-21.256l8.113-4.179v28.627C194.483-3377.187,194.342-3376.94,194.215-3376.873Zm11.44-6.22c0,.482-.147.734-.276.8s-.431.061-.875-.18l-7.815-4.219v-20.748l7.762-3.994a1.114,1.114,0,0,1,.912-.158.947.947,0,0,1,.293.822Z" transform="translate(-143.124 3431.378)" fill="#1aa4c5"/>
</svg>
