<?xml version="1.0" encoding="utf-8"?>
<!-- Generator: Adobe Illustrator 23.1.1, SVG Export Plug-In . SVG Version: 6.00 Build 0)  -->
<svg version="1.1" id="Capa_1" xmlns="http://www.w3.org/2000/svg" xmlns:xlink="http://www.w3.org/1999/xlink" x="0px" y="0px"
	 viewBox="0 0 64 64" style="enable-background:new 0 0 64 64;" xml:space="preserve">
<style type="text/css">
	.st0{fill:#1AA4C5;}
</style>
<path id="Path_1252" class="st0" d="M60.5,17.3c-0.9-0.4-2-0.4-2.8,0.1l-6.2,3.2v-6.4c0.1-1-0.4-1.9-1.3-2.4c-0.9-0.4-2-0.4-2.8,0.2
	L42,14.9v-6c0.1-1-0.4-1.9-1.3-2.4c-0.9-0.4-2-0.4-2.8,0.1l-5.3,2.8V3.4c0.1-1-0.4-1.9-1.3-2.4c-0.9-0.4-2-0.4-2.8,0.2l-24.3,13
	c-0.9,0.4-1.5,1.2-1.6,2.2c0.1,1,0.7,1.8,1.6,2.2l5.4,3l-5.8,3.1c-0.9,0.4-1.5,1.2-1.6,2.2c0.1,1,0.7,1.8,1.6,2.2l5.9,3.2l-5.5,3
	c-0.9,0.4-1.5,1.2-1.6,2.2c0.1,1,0.7,1.8,1.6,2.2l5.5,2.9l-5.5,3c-0.9,0.4-1.5,1.2-1.6,2.2c0.1,1,0.7,1.8,1.6,2.2L28,62.8
	c0.5,0.3,1.1,0.4,1.7,0.5c0.4,0,0.8-0.1,1.2-0.3c0.8-0.5,1.3-1.4,1.3-2.4v-5.9l5.8,3.1c0.5,0.3,1.1,0.4,1.7,0.4
	c0.4,0,0.8-0.1,1.2-0.3c0.8-0.5,1.3-1.4,1.3-2.4v-6.2l5.4,2.9c0.5,0.3,1.1,0.4,1.7,0.5c0.4,0,0.8-0.1,1.2-0.3
	c0.8-0.5,1.3-1.4,1.3-2.4V44l6.2,3.3c0.5,0.3,1.1,0.4,1.7,0.5c0.4,0,0.8-0.1,1.2-0.3c0.8-0.5,1.3-1.4,1.3-2.4V19.7
	C61.8,18.7,61.3,17.8,60.5,17.3z M48.4,13.6c0.2-0.2,0.5-0.2,0.8-0.2c0.1,0.1,0.2,0.3,0.2,0.7v7.4L33.1,30c-1.3,0.6-2.9,0.6-4.2-0.1
	l-5.4-3L48.4,13.6z M38.9,8.2C39.3,8,39.6,8,39.7,8.1C39.8,8.2,40,8.4,40,8.8V16l-18.5,9.9l-7.8-4.3L38.9,8.2z M5.2,17
	c-0.4-0.2-0.6-0.5-0.6-0.6c0-0.1,0.1-0.4,0.6-0.6l24.3-13c0.4-0.2,0.7-0.2,0.8-0.2c0.1,0.1,0.3,0.3,0.3,0.7v7.1l-18.9,10L5.2,17z
	 M30.1,60.6c0,0.4-0.1,0.7-0.3,0.7c-0.1,0.1-0.4,0.1-0.8-0.2L5.2,48.4c-0.4-0.2-0.6-0.4-0.6-0.6c0-0.1,0.1-0.4,0.6-0.6l6.5-3.5
	l18.4,9.9L30.1,60.6L30.1,60.6z M30.1,51.4L5.2,38c-0.4-0.2-0.6-0.4-0.6-0.6c0-0.1,0.1-0.4,0.6-0.6l6.5-3.5l18.4,9.9L30.1,51.4
	L30.1,51.4z M30.1,41.1L4.8,27.4c-0.4-0.2-0.6-0.4-0.6-0.6c0-0.1,0.2-0.4,0.6-0.6l6.8-3.6l16.3,8.9c0.7,0.4,1.4,0.6,2.2,0.7
	c0,0,0,0,0,0.1L30.1,41.1z M39.7,56.3c-0.1,0.1-0.4,0.1-0.8-0.2l-6.8-3.7V32.4c0,0,0,0,0-0.1c0.7-0.1,1.3-0.3,2-0.6l5.9-3v26.9
	C40,56,39.8,56.3,39.7,56.3L39.7,56.3z M49.2,50.9c-0.1,0.1-0.4,0.1-0.8-0.2L42,47.2V27.6l7.5-3.8v26.3
	C49.5,50.6,49.3,50.8,49.2,50.9L49.2,50.9z M59.8,45.1c0,0.4-0.1,0.7-0.3,0.7c-0.1,0.1-0.4,0.1-0.8-0.2l-7.2-3.9V22.7l7.1-3.7
	c0.2-0.2,0.6-0.2,0.8-0.1c0.2,0.2,0.3,0.5,0.3,0.8L59.8,45.1z"/>
</svg>
