<?xml version="1.0" encoding="utf-8"?>
<!-- Generator: Adobe Illustrator 23.1.1, SVG Export Plug-In . SVG Version: 6.00 Build 0)  -->
<svg version="1.1" id="Capa_1" xmlns="http://www.w3.org/2000/svg" xmlns:xlink="http://www.w3.org/1999/xlink" x="0px" y="0px"
	 viewBox="0 0 64 64" style="enable-background:new 0 0 64 64;" xml:space="preserve">
<style type="text/css">
	.st0{fill:none;stroke:#04A89E;stroke-width:1.9251;stroke-linejoin:round;}
</style>
<g id="Group_1146" transform="translate(1.059 1.059)">
	<g id="Group_913" transform="translate(0 0)">
		<path id="Path_445" class="st0" d="M49.3,7.7c-9.9-9.9-26-9.9-35.9,0c-9.9,9.9-9.9,26,0,35.9l18,18l18-18
			C57.8,34,58.5,17.9,49.3,7.7z"/>
		<path id="Path_446" class="st0" d="M41.5,25.7c0,5.6-4.5,10.2-10.2,10.2c-5.6,0-10.2-4.5-10.2-10.2c0-5.6,4.5-10.2,10.2-10.2
			c0,0,0,0,0,0C36.9,15.5,41.5,20.1,41.5,25.7z"/>
		<path id="Path_447" class="st0" d="M49.1,25.7c0,9.8-8,17.8-17.8,17.8c-9.8,0-17.8-8-17.8-17.8c0-9.8,8-17.8,17.8-17.8
			C41.1,7.9,49.1,15.9,49.1,25.7z"/>
	</g>
</g>
</svg>
