<svg xmlns="http://www.w3.org/2000/svg" width="57.996" height="69.571" viewBox="0 0 57.996 69.571">
  <g id="Group_1146" data-name="Group 1146" transform="translate(1.059 1.059)">
    <g id="Group_913" data-name="Group 913" transform="translate(0 0)">
      <path id="Path_445" data-name="Path 445" d="M189.508-563.13a27.938,27.938,0,0,0-39.51,0,27.94,27.94,0,0,0,0,39.512l19.757,19.758,19.753-19.758A27.937,27.937,0,0,0,189.508-563.13Z" transform="translate(-141.815 571.313)" fill="none" stroke="#04a89e" stroke-linejoin="round" stroke-width="2.118"/>
      <path id="Path_446" data-name="Path 446" d="M181.436-542.865a11.176,11.176,0,0,1-11.175,11.175,11.176,11.176,0,0,1-11.176-11.175,11.175,11.175,0,0,1,11.176-11.175A11.175,11.175,0,0,1,181.436-542.865Z" transform="translate(-142.323 570.805)" fill="none" stroke="#04a89e" stroke-linejoin="round" stroke-width="2.118"/>
      <path id="Path_447" data-name="Path 447" d="M189.565-543.119a19.559,19.559,0,0,1-19.558,19.557,19.559,19.559,0,0,1-19.557-19.557,19.559,19.559,0,0,1,19.557-19.559A19.56,19.56,0,0,1,189.565-543.119Z" transform="translate(-142.069 571.059)" fill="none" stroke="#04a89e" stroke-linejoin="round" stroke-width="2.118"/>
    </g>
  </g>
</svg>
