<?xml version="1.0" encoding="utf-8"?>
<!-- Generator: Adobe Illustrator 23.1.1, SVG Export Plug-In . SVG Version: 6.00 Build 0)  -->
<svg version="1.1" id="Group_926" xmlns="http://www.w3.org/2000/svg" xmlns:xlink="http://www.w3.org/1999/xlink" x="0px" y="0px"
	 viewBox="0 0 64 64" style="enable-background:new 0 0 64 64;" xml:space="preserve">
<style type="text/css">
	.st0{fill:none;}
	.st1{fill:#FF846E;}
</style>
<g>
	<path id="Path_453" class="st0" d="M53.2,41.9c1.3,0,2.6,0.3,3.9,0.8C62.9,28.5,56.2,12.2,42,6.3S11.6,7.2,5.7,21.4
		s0.9,30.4,15.1,36.3c7.7,3.2,16.4,2.8,23.7-1.2c-2.6-4.8-0.8-10.8,4-13.5C49.9,42.3,51.5,41.9,53.2,41.9L53.2,41.9z M38.6,46.7
		c0,1.2-1,2.2-2.2,2.3H26.2c-1.2-0.1-2.1-1.1-2.2-2.3v-7.3h-7.4c-1.2-0.1-2.1-1.1-2.1-2.4V26.9c0.1-1.1,1-2,2.1-2H24v-7.6
		c0.1-1.2,1-2.1,2.2-2.2h10.3c1.2,0.1,2.1,1,2.1,2.2v7.6h7.5c1.1,0,2,0.9,2.1,2v10.2c0,1.1-1,2.4-2.1,2.4h-7.5V46.7z"/>
	<path id="Path_454" class="st0" d="M35.9,26v-8.5h-9.1V26c-0.1,0.7-0.7,1.3-1.4,1.3H17v9.3h8.4c0.7,0,1.3,0.5,1.4,1.2v8.6h9.1V38
		c0.1-0.7,0.7-1.2,1.4-1.2h8.1v-9.3h-8.2C36.6,27.3,36,26.8,35.9,26z"/>
	<path id="Path_455" class="st1" d="M48.2,37.1V26.9c0-1.1-0.9-2-2.1-2h-7.5v-7.6c0-1.2-0.9-2.1-2.1-2.2H26.2
		c-1.2,0.1-2.1,1-2.2,2.2v7.6h-7.4c-1.1,0-2.1,0.9-2.1,2v10.2c0,1.2,0.9,2.2,2.1,2.4H24v7.3c0.1,1.2,1,2.2,2.2,2.3h10.2
		c1.2-0.1,2.1-1.1,2.2-2.3v-7.3h7.5C47.2,39.4,48.2,38.2,48.2,37.1z M45.4,36.7h-8.1c-0.7,0-1.3,0.5-1.4,1.2v8.6h-9.1V38
		c-0.1-0.7-0.7-1.2-1.4-1.2H17v-9.3h8.4c0.7,0,1.3-0.6,1.4-1.3v-8.5h9.1V26c0.1,0.7,0.7,1.3,1.4,1.3h8.2L45.4,36.7z"/>
	<path id="Path_456" class="st1" d="M59.4,44c6.6-15.5-0.5-33.4-16-40S10,4.5,3.4,20s0.5,33.4,16,40c8.6,3.7,18.5,3.2,26.7-1.3
		c3.8,3.9,10.1,4.1,14,0.3c3.9-3.8,4.1-10.1,0.3-14C60,44.6,59.7,44.3,59.4,44z M31.3,59.8C16,59.8,3.6,47.3,3.6,32
		c0-15.3,12.5-27.8,27.8-27.7c15.3,0,27.8,12.5,27.7,27.8c0,3.6-0.7,7.2-2.1,10.6c-5-2.1-10.9,0.2-13,5.3c-1.2,2.8-1,6,0.4,8.6
		C40.4,58.7,35.9,59.8,31.3,59.8L31.3,59.8z M59.5,49.8l-7,6.8l-0.2,0.2c-0.4,0.3-0.9,0.2-1.3-0.1l-0.1-0.1l-0.5-0.5l-1.8-1.9
		l-0.9-1c-0.5-0.5-0.5-1.3,0-1.8c0.5-0.5,1.3-0.5,1.8,0c0,0,0.1,0.1,0.1,0.1l1,1l1.3,1.4l5-4.9l1-1c0.5-0.5,1.3-0.5,1.8,0
		C60,48.5,60,49.3,59.5,49.8L59.5,49.8L59.5,49.8z"/>
</g>
</svg>
