<svg id="Group_926" data-name="Group 926" xmlns="http://www.w3.org/2000/svg" width="95.126" height="93.137" viewBox="0 0 95.126 93.137">
  <path id="Path_453" data-name="Path 453" d="M197.948,142.732a15.113,15.113,0,0,1,5.913,1.2,42.488,42.488,0,1,0-19.23,21.221,15.166,15.166,0,0,1,13.318-22.417Zm-22.287,7.426a3.654,3.654,0,0,1-3.314,3.5h-15.6a3.71,3.71,0,0,1-3.377-3.5v-11.13h-11.35a3.718,3.718,0,0,1-3.279-3.6v-15.6a3.253,3.253,0,0,1,3.278-3.094h11.351V105.1a3.564,3.564,0,0,1,3.376-3.345h15.685a3.432,3.432,0,0,1,3.231,3.344v11.634h11.5a3.146,3.146,0,0,1,3.134,3.094v15.6c0,1.712-1.505,3.6-3.217,3.6H175.661Z" transform="translate(-117.986 -81.072)" fill="none"/>
  <path id="Path_454" data-name="Path 454" d="M209.911,156.845V143.9H195.978v12.948a2.258,2.258,0,0,1-2.1,2.03H181v14.281h12.882a2.132,2.132,0,0,1,2.1,1.892v13.086h13.933V175.048a2.212,2.212,0,0,1,2.175-1.892H224.54V158.875H212.085A2.336,2.336,0,0,1,209.911,156.845Z" transform="translate(-156.416 -119.379)" fill="none"/>
  <path id="Path_455" data-name="Path 455" d="M221.551,166.569v-15.6a3.146,3.146,0,0,0-3.134-3.094h-11.5V136.241a3.432,3.432,0,0,0-3.231-3.344H188.006a3.564,3.564,0,0,0-3.376,3.345v11.632H173.278A3.253,3.253,0,0,0,170,150.969v15.6a3.718,3.718,0,0,0,3.279,3.6h11.35V181.3a3.71,3.71,0,0,0,3.377,3.5h15.6a3.654,3.654,0,0,0,3.314-3.5V170.167h11.413C220.046,170.167,221.551,168.282,221.551,166.569Zm-4.18-.582H204.917a2.212,2.212,0,0,0-2.175,1.892v13.086H188.809V167.879a2.132,2.132,0,0,0-2.1-1.892H173.831V151.706h12.882a2.258,2.258,0,0,0,2.1-2.03V136.729h13.933v12.948a2.336,2.336,0,0,0,2.175,2.03h12.455Z" transform="translate(-149.247 -112.21)" fill="#ff846e"/>
  <path id="Path_456" data-name="Path 456" d="M199.793,138.454a46.556,46.556,0,1,0-20.307,22.407,15.154,15.154,0,1,0,20.307-22.407Zm-42.8,24.146A42.451,42.451,0,1,1,196.3,136.363a15.167,15.167,0,0,0-19.23,21.221A42.31,42.31,0,0,1,156.989,162.6Zm42.963-15.385L189.243,157.68l-.374.365a1.6,1.6,0,0,1-1.984-.124l-.184-.193-.777-.816-2.8-2.942-1.411-1.482a1.936,1.936,0,1,1,2.8-2.669l1.509,1.583L188,153.48l7.694-7.519,1.55-1.515a1.936,1.936,0,0,1,2.706,2.77Z" transform="translate(-110.421 -73.507)" fill="#ff846e"/>
</svg>
