<svg xmlns="http://www.w3.org/2000/svg" width="46.826" height="69.389" viewBox="0 0 46.826 69.389">
  <g id="Group_1142" data-name="Group 1142" transform="translate(0.98 0.98)">
    <rect id="Rectangle_140" data-name="Rectangle 140" width="32.509" height="54.225" rx="4.999" transform="translate(0 0)" fill="none" stroke="#4e646f" stroke-linecap="round" stroke-miterlimit="10" stroke-width="1.96"/>
    <path id="Path_436" data-name="Path 436" d="M175.016-2385.248h0a5.632,5.632,0,0,1,5.617,5.617v42.989a5.634,5.634,0,0,1-5.617,5.619H153.743a5.634,5.634,0,0,1-5.617-5.619" transform="translate(-142.079 2392.142)" fill="none" stroke="#4e646f" stroke-linecap="round" stroke-miterlimit="10" stroke-width="1.96"/>
    <path id="Path_437" data-name="Path 437" d="M180.631-2379.633h0a5.633,5.633,0,0,1,5.619,5.617v42.989a5.635,5.635,0,0,1-5.619,5.619H159.358a5.633,5.633,0,0,1-5.616-5.619" transform="translate(-141.383 2392.838)" fill="none" stroke="#4e646f" stroke-linecap="round" stroke-miterlimit="10" stroke-width="1.96"/>
    <line id="Line_22" data-name="Line 22" x2="31.643" transform="translate(0.866 43.726)" fill="none" stroke="#4e646f" stroke-linecap="round" stroke-miterlimit="10" stroke-width="1.96"/>
    <line id="Line_23" data-name="Line 23" x2="31.643" transform="translate(0.866 10.659)" fill="none" stroke="#4e646f" stroke-linecap="round" stroke-miterlimit="10" stroke-width="1.96"/>
  </g>
</svg>
