<?xml version="1.0" encoding="utf-8"?>
<!-- Generator: Adobe Illustrator 25.4.1, SVG Export Plug-In . SVG Version: 6.00 Build 0)  -->
<svg version="1.1" id="Capa_1" xmlns="http://www.w3.org/2000/svg" xmlns:xlink="http://www.w3.org/1999/xlink" x="0px" y="0px"
	 viewBox="0 0 64.1 67.4" style="enable-background:new 0 0 64.1 67.4;" xml:space="preserve">
<style type="text/css">
	.st0{fill:#5D9AFF;}
</style>
<g>
	<path class="st0" d="M61.9,12.5c0-0.2-0.1-0.4-0.3-0.6c-0.2-0.1-0.4-0.2-0.6-0.2L54.3,12c0,0,0,0,0,0c-0.4,0-0.8,0.4-0.7,0.8
		c0,0.4,0.4,0.8,0.8,0.7l4.8-0.2L39,35l-7.6-8.8c0,0,0,0,0,0c-0.3-0.3-0.8-0.3-1.1,0L2.1,54.3c-0.2,0.1-0.2,0.4-0.2,0.6
		c0,0.4,0.4,0.8,0.8,0.8c0.2,0,0.4-0.1,0.6-0.2l27.5-27.5l7.6,8.8c0.1,0.2,0.4,0.3,0.6,0.3c0.2,0,0.4-0.1,0.6-0.3l20.8-22.3l0.2,4.9
		c0,0.4,0.4,0.8,0.8,0.8h0c0.4,0,0.8-0.4,0.8-0.8L61.9,12.5z"/>
	<path class="st0" d="M2.8,44.5C2.8,44.5,2.8,44.5,2.8,44.5c0.4,0,0.8-0.4,0.8-0.8V21.3c0-2.5,2.1-4.6,4.6-4.6h36.3
		c0.4,0,0.8-0.4,0.8-0.8c0-0.4-0.4-0.8-0.8-0.8H8.1c-3.4,0-6.2,2.8-6.2,6.2v22.4c0,0,0,0,0,0C2,44.1,2.3,44.5,2.8,44.5z"/>
	<path class="st0" d="M60.5,29.7c-0.4,0-0.8,0.4-0.8,0.8v18.1c0,2.5-2.1,4.6-4.6,4.6H15.6c-0.4,0-0.7,0.3-0.8,0.8
		c0,0.4,0.3,0.8,0.8,0.8h39.6c3.4,0,6.2-2.8,6.2-6.2V30.5C61.3,30,61,29.7,60.5,29.7z"/>
</g>
</svg>
