<?xml version="1.0" encoding="utf-8"?>
<!-- Generator: Adobe Illustrator 23.1.1, SVG Export Plug-In . SVG Version: 6.00 Build 0)  -->
<svg version="1.1" id="Capa_1" xmlns="http://www.w3.org/2000/svg" xmlns:xlink="http://www.w3.org/1999/xlink" x="0px" y="0px"
	 viewBox="0 0 64 64" style="enable-background:new 0 0 64 64;" xml:space="preserve">
<style type="text/css">
	.st0{fill:#FF846E;}
</style>
<g id="Group_1145" transform="translate(0 0)">
	<path id="Path_438" class="st0" d="M62.1,30.4C62.1,13.8,48.6,0.4,32,0.4C15.4,0.4,1.9,13.8,1.9,30.4v0.9h8.8
		c0.5,11.4,9.9,20.4,21.3,20.4c11.8,0,21.3-9.6,21.3-21.3c0-11.8-9.6-21.3-21.3-21.3c-11.4,0-20.8,9-21.3,20.4H3.8
		C4.3,14.3,16.8,2.3,32,2.2c15.6,0,28.2,12.6,28.2,28.2c0,14.1-10.4,26-24.3,27.9c-0.5-1.7-2.1-2.9-3.9-2.9c-2.3,0-4.1,1.8-4.1,4.1
		c0,2.3,1.8,4.1,4.1,4.1c2,0,3.7-1.4,4-3.4C50.9,58.2,62.1,45.5,62.1,30.4z M32,11c10.7,0,19.4,8.7,19.5,19.5
		c0,10.7-8.7,19.4-19.5,19.5c-10.7,0-19.4-8.7-19.5-19.5C12.6,19.7,21.3,11,32,11z"/>
	<path id="Path_439" class="st0" d="M31.9,43c7,0,12.6-5.6,12.6-12.6c0-7-5.6-12.6-12.6-12.6c-7,0-12.6,5.6-12.6,12.6
		C19.3,37.4,24.9,43,31.9,43z M31.9,19.7c5.9,0,10.7,4.8,10.7,10.7c0,5.9-4.8,10.7-10.7,10.7c-5.9,0-10.7-4.8-10.7-10.7
		C21.2,24.5,26,19.7,31.9,19.7z"/>
</g>
</svg>
