<svg xmlns="http://www.w3.org/2000/svg" width="64.089" height="67.43" viewBox="0 0 64.089 67.43">
  <g id="Group_1145" data-name="Group 1145" transform="translate(0 0)">
    <path id="Path_438" data-name="Path 438" d="M181.995-1404.833a32.081,32.081,0,0,0-32.045-32.046,32.081,32.081,0,0,0-32.044,32.046v1h9.338A22.758,22.758,0,0,0,149.95-1382.1a22.759,22.759,0,0,0,22.733-22.732,22.759,22.759,0,0,0-22.733-22.733,22.757,22.757,0,0,0-22.706,21.727h-7.313a30.071,30.071,0,0,1,30.019-29.031,30.07,30.07,0,0,1,30.037,30.036,30.078,30.078,0,0,1-25.888,29.742,4.351,4.351,0,0,0-4.148-3.048,4.349,4.349,0,0,0-4.345,4.346,4.35,4.35,0,0,0,4.345,4.344,4.35,4.35,0,0,0,4.284-3.636A32.085,32.085,0,0,0,181.995-1404.833Zm-32.045-20.726a20.748,20.748,0,0,1,20.724,20.726,20.747,20.747,0,0,1-20.724,20.722,20.747,20.747,0,0,1-20.723-20.722A20.749,20.749,0,0,1,149.95-1425.559Z" transform="translate(-117.906 1436.879)" fill="#ff846e"/>
    <path id="Path_439" data-name="Path 439" d="M147.771-1393.467a13.434,13.434,0,0,0,13.42-13.419,13.436,13.436,0,0,0-13.42-13.422,13.435,13.435,0,0,0-13.419,13.422A13.433,13.433,0,0,0,147.771-1393.467Zm0-24.833a11.426,11.426,0,0,1,11.411,11.415,11.425,11.425,0,0,1-11.411,11.411,11.425,11.425,0,0,1-11.41-11.411A11.425,11.425,0,0,1,147.771-1418.3Z" transform="translate(-115.869 1438.931)" fill="#ff846e"/>
  </g>
</svg>
