<?xml version="1.0" encoding="utf-8"?>
<!-- Generator: Adobe Illustrator 25.4.1, SVG Export Plug-In . SVG Version: 6.00 Build 0)  -->
<svg version="1.1" id="Capa_1" xmlns="http://www.w3.org/2000/svg" xmlns:xlink="http://www.w3.org/1999/xlink" x="0px" y="0px"
	 viewBox="0 0 64.1 67.4" style="enable-background:new 0 0 64.1 67.4;" xml:space="preserve">
<style type="text/css">
	.st0{fill:#FF846E;}
</style>
<g id="Group_1145" transform="translate(0 0)">
	<path id="Path_438" class="st0" d="M64.1,32c0-17.7-14.4-32-32-32C14.4,0,0,14.4,0,32v1h9.3C9.9,45.2,19.9,54.8,32,54.8
		c12.5,0,22.7-10.2,22.7-22.7C54.8,19.5,44.6,9.3,32,9.3C19.9,9.3,9.9,18.9,9.3,31H2C2.6,14.9,15.9,2,32,2c16.6,0,30,13.5,30,30
		c0,15-11.1,27.7-25.9,29.7c-0.6-1.8-2.2-3-4.1-3c-2.4,0-4.3,1.9-4.3,4.3c0,2.4,1.9,4.3,4.3,4.3c2.1,0,3.9-1.5,4.3-3.6
		C52.2,61.6,64.1,48.1,64.1,32z M32,11.3c11.4,0,20.7,9.3,20.7,20.7c0,11.4-9.3,20.7-20.7,20.7c-11.4,0-20.7-9.3-20.7-20.7
		C11.3,20.6,20.6,11.3,32,11.3z"/>
	<path id="Path_439" class="st0" d="M31.9,45.5c7.4,0,13.4-6,13.4-13.4c0-7.4-6-13.4-13.4-13.4c-7.4,0-13.4,6-13.4,13.4
		C18.5,39.5,24.5,45.5,31.9,45.5z M31.9,20.6c6.3,0,11.4,5.1,11.4,11.4c0,6.3-5.1,11.4-11.4,11.4c-6.3,0-11.4-5.1-11.4-11.4
		C20.5,25.7,25.6,20.6,31.9,20.6z"/>
</g>
</svg>
